<svg width="18" height="18" viewBox="0 0 18 18" fill="none" xmlns="http://www.w3.org/2000/svg">
<path d="M6.7694 8.62575C4.43552 7.61271 3.56453 5.16669 4.15952 3.18483C4.72585 1.29704 6.51956 -0.0300125 8.50142 0.000516018C9.47987 0.0192191 10.4254 0.357382 11.1937 0.963447C11.9621 1.56951 12.5112 2.41023 12.7573 3.35741C13.2664 5.35422 12.3399 7.63327 10.1001 8.62264C11.4988 8.93789 12.7218 9.50236 13.8215 10.4139C12.072 10.5758 10.806 11.3964 10.1979 13.0362C9.58986 14.676 10.0185 16.1146 11.2334 17.3806H0.00888886C-0.0789585 15.2835 0.483015 13.4081 1.75338 11.7584C3.02373 10.1086 4.68785 9.0924 6.7694 8.62575Z" fill="#07C046"/>
<path d="M14.2109 11.1689C13.5354 11.1689 12.875 11.3693 12.3133 11.7446C11.7517 12.1198 11.3139 12.6533 11.0554 13.2774C10.7969 13.9015 10.7293 14.5882 10.861 15.2507C10.9928 15.9133 11.3181 16.5218 11.7958 16.9995C12.2734 17.4772 12.882 17.8024 13.5445 17.9342C14.2071 18.066 14.8938 17.9984 15.5179 17.7399C16.142 17.4814 16.6754 17.0436 17.0507 16.4819C17.426 15.9203 17.6263 15.2599 17.6263 14.5844C17.6263 13.6786 17.2665 12.8098 16.626 12.1693C15.9854 11.5288 15.1167 11.1689 14.2109 11.1689ZM16.2862 14.104C15.7259 14.6648 15.1651 15.2255 14.604 15.7862C14.2856 16.1033 14.0495 16.1027 13.7318 15.7862C13.2956 15.3501 12.8595 14.919 12.4296 14.481C12.2545 14.304 12.2209 14.0841 12.3212 13.8928C12.4215 13.7016 12.6215 13.5919 12.8196 13.6436C12.9451 13.6828 13.0596 13.7511 13.1536 13.843C13.4913 14.1639 13.8171 14.4972 14.1641 14.8398L15.5971 13.4187C15.9086 13.1072 16.1747 13.0673 16.407 13.2941C16.6394 13.5209 16.594 13.7925 16.2862 14.104Z" fill="#07C046"/>
</svg>
